#!OML:ASF H:\ManfredObstacles\Project 1\Capture day 2\Session 1\male.ASF
:FULLY-SPECIFIED
:DEGREES
367
root 2.17971 15.8726 -12.2183 -159.912 -0.058106 177.843
lowerback 8.5135 0.516994 -5.85969
upperback 6.00479 -0.366083 -1.85085
thorax 1.47035 -0.603935 1.38787
lowerneck -31.5531 -0.610394 1.0885
upperneck 27.9647 -3.24139 3.65655
head 15.0816 -0.812019 0.616155
rclavicle 5.1684e-015 1.82882e-014
rhumerus -38.4906 10.5776 -93.7485
rradius 68.9797
rwrist 19.5494
rhand -9.2675 -11.5904
rfingers 7.12502
rthumb 16.6889 -40.893
lclavicle 5.1684e-015 1.82882e-014
lhumerus -26.4843 -34.2857 94.0816
lradius 74.0263
lwrist -24.6262
lhand -9.00452 11.8471
lfingers 7.12502
lthumb 16.9421 41.1281
rfemur -23.7575 2.31135 22.8258
rtibia 64.7329
rfoot 10.5765 -18.4321
rtoes -19.1694
lfemur -37.5927 -3.67355 -21.7529
ltibia 45.7117
lfoot 0.878256 13.7535
ltoes -17.7101
368
root 2.16267 15.8815 -12.4176 -160.159 0.124265 177.706
lowerback 8.22496 0.334744 -6.02145
upperback 5.78711 -0.574874 -1.92293
thorax 1.41817 -0.693756 1.41806
lowerneck -31.6718 -0.92259 1.50691
upperneck 28.0819 -2.87108 3.34367
head 15.1343 -0.345689 0.580015
rclavicle 4.37326e-015 7.95139e-015
rhumerus -39.6151 10.2282 -93.7275
rradius 68.751
rwrist 19.1681
rhand -9.66038 -11.5562
rfingers 7.12502
rthumb 16.3107 -40.8902
lclavicle 4.37326e-015 7.95139e-015
lhumerus -26.1296 -34.2471 93.7972
lradius 74.5577
lwrist -24.4999
lhand -9.20142 11.846
lfingers 7.12502
lthumb 16.7525 41.1432
rfemur -24.7891 2.18822 22.6655
rtibia 66.6846
rfoot 9.88653 -18.5529
rtoes -19.6577
lfemur -36.4963 -3.56127 -22.0316
ltibia 45.6929
lfoot 0.882271 13.5875
ltoes -18.1782
369
root 2.14693 15.8897 -12.6168 -160.413 0.31282 177.563
lowerback 7.95541 0.156578 -6.19619
upperback 5.57002 -0.781977 -1.98817
thorax 1.35745 -0.783478 1.46151
lowerneck -31.7433 -0.780179 1.64765
upperneck 28.1511 -2.69453 3.21178
head 15.1726 -0.274587 0.540144
rclavicle -1.19271e-014 -1.66979e-014
rhumerus -40.7783 9.83332 -93.6627
rradius 68.4704
rwrist 18.8694
rhand -9.91714 -11.4878
rfingers 7.12502
rthumb 16.0634 -40.842
lclavicle -1.19271e-014 -1.66979e-014
lhumerus -25.7392 -34.1867 93.5136
lradius 75.0896
lwrist -24.411
lhand -9.43846 11.8614
lfingers 7.12502
lthumb 16.5243 41.1777
rfemur -25.8709 2.07177 22.4887
rtibia 68.5393
rfoot 9.2346 -18.4965
rtoes -20.1753
lfemur -35.382 -3.42127 -22.313
ltibia 45.6421
lfoot 0.877595 13.3766
ltoes -18.5973
370
root 2.13176 15.8973 -12.8162 -160.685 0.476952 177.413
lowerback 7.71594 -0.778338 -6.46804
upperback 5.33532 -0.824356 -2.09914
thorax 1.30725 -0.301099 1.51057
lowerneck -31.7909 -0.635893 1.79062
upperneck 28.2544 -2.51628 3.09053
head 15.2226 -0.198995 0.505486
rclavicle 1.27222e-014 2.62396e-014
rhumerus -41.9773 9.41685 -93.5555
rradius 68.1532
rwrist 18.5692
rhand -10.0644 -11.4326
rfingers 7.12502
rthumb 15.9216 -40.7982
lclavicle 1.27222e-014 2.62396e-014
lhumerus -25.2992 -34.1014 93.2241
lradius 75.6162
lwrist -24.3116
lhand -9.68532 11.8836
lfingers 7.12502
lthumb 16.2867 41.2197
rfemur -26.9727 1.92187 22.2968
rtibia 70.2712
rfoot 8.60986 -18.3254
rtoes -20.6842
lfemur -34.2296 -3.28009 -22.595
ltibia 45.5456
lfoot 0.85986 13.1285
ltoes -18.9664
371
root 2.11731 15.9042 -13.0163 -160.967 0.628242 177.263
lowerback 7.49809 -0.93055 -6.61882
upperback 5.13361 -1.0556 -2.14787
thorax 1.23642 -0.425155 1.5567
lowerneck -31.7809 -0.495755 1.9278
upperneck 28.3237 -2.34098 2.9793
head 15.2463 -0.125144 0.474874
rclavicle -1.47101e-014 -8.74653e-015
rhumerus -43.2112 8.97089 -93.403
rradius 67.8114
rwrist 18.2398
rhand -10.0531 -11.4471
rfingers 7.12502
rthumb 15.9325 -40.8118
lclavicle -1.47101e-014 -8.74653e-015
lhumerus -24.8157 -34.0057 92.9223
lradius 76.1426
lwrist -24.2372
lhand -9.92884 11.9035
lfingers 7.12502
lthumb 16.0522 41.2586
rfemur -28.0971 1.74136 22.1009
rtibia 71.8645
rfoot 8.05542 -18.0682
rtoes -21.2065
lfemur -33.039 -3.12515 -22.869
ltibia 45.3902
lfoot 0.825432 12.8505
ltoes -19.3074
372
root 2.10287 15.9104 -13.2166 -161.249 0.775712 177.119
lowerback 7.30002 -1.08108 -6.75182
upperback 4.92986 -1.28394 -2.19166
thorax 1.15284 -0.54625 1.59738
lowerneck -31.744 -0.367267 2.03872
upperneck 28.4088 -2.17437 2.89254
head 15.2732 -0.0530149 0.457424
rclavicle -3.97569e-015 -3.18055e-015
rhumerus -44.488 8.51811 -93.1944
rradius 67.4279
rwrist 17.8889
rhand -9.93187 -11.4928
rfingers 7.12502
rthumb 16.0493 -40.8481
lclavicle -3.97569e-015 -3.18055e-015
lhumerus -24.3042 -33.912 92.6201
lradius 76.675
lwrist -24.1549
lhand -10.154 11.929
lfingers 7.12502
lthumb 15.8353 41.3014
rfemur -29.2485 1.52976 21.8996
rtibia 73.3119
rfoot 7.54215 -17.7922
rtoes -21.6201
lfemur -31.8148 -2.95339 -23.1367
ltibia 45.1687
lfoot 0.770009 12.552
ltoes -19.6452
373
root 2.08895 15.9162 -13.4176 -161.538 0.921756 176.99
lowerback 7.12289 -1.2257 -6.86265
upperback 4.74266 -1.50081 -2.22823
thorax 1.07437 -0.660195 1.63209
lowerneck -31.6887 -0.248418 2.12602
upperneck 28.458 -2.01775 2.82945
head 15.2812 0.0144277 0.451117
rclavicle -1.66979e-014 -3.97569e-014
rhumerus -45.7594 8.06319 -92.9161
rradius 66.9801
rwrist 17.544
rhand -9.71037 -11.5726
rfingers 7.12502
rthumb 16.2625 -40.9106
lclavicle -1.66979e-014 -3.97569e-014
lhumerus -23.742 -33.8464 92.2964
lradius 77.2271
lwrist -24.0665
lhand -10.3846 11.9579
lfingers 7.12502
lthumb 15.6132 41.3478
rfemur -30.4143 1.29702 21.7131
rtibia 74.6076
rfoot 7.04849 -17.5569
rtoes -21.9464
lfemur -30.5442 -2.76718 -23.3848
ltibia 44.8713
lfoot 0.708174 12.2411
ltoes -19.9579
374
root 2.0765 15.9209 -13.6191 -161.811 1.1126 176.882
lowerback 6.94617 -1.35375 -6.98443
upperback 4.56001 -1.6948 -2.2553
thorax 1.00012 -0.762694 1.68079
lowerneck -31.6462 -0.129817 2.20827
upperneck 28.485 -1.85967 2.76163
head 15.2818 0.0797968 0.443441
rclavicle -3.10104e-014 -3.89618e-014
rhumerus -47.0249 7.65126 -92.5745
rradius 66.4551
rwrist 17.2172
rhand -9.42004 -11.6733
rfingers 7.12502
rthumb 16.5421 -40.9882
lclavicle -3.10104e-014 -3.89618e-014
lhumerus -23.1421 -33.7972 91.9432
lradius 77.8099
lwrist -23.9749
lhand -10.5981 11.9957
lfingers 7.12502
lthumb 15.4077 41.4015
rfemur -31.6329 1.09401 21.545
rtibia 75.755
rfoot 6.57215 -17.4065
rtoes -22.2275
lfemur -29.2541 -2.52423 -23.6165
ltibia 44.4961
lfoot 0.65509 11.9153
ltoes -20.2393
375
root 2.0657 15.9251 -13.8214 -162.082 1.33632 176.786
lowerback 6.78369 -1.46781 -7.11711
upperback 4.38927 -1.86883 -2.27589
thorax 0.930313 -0.854733 1.74079
lowerneck -31.6443 -0.00902715 2.29841
upperneck 28.5093 -1.70209 2.68149
head 15.2894 0.143339 0.428996
rclavicle 7.95139e-016 -2.38542e-015
rhumerus -48.2654 7.2678 -92.1649
rradius 65.8152
rwrist 16.9864
rhand -9.12015 -11.7242
rfingers 7.12502
rthumb 16.8308 -41.0147
lclavicle 7.95139e-016 -2.38542e-015
lhumerus -22.5104 -33.7832 91.554
lradius 78.4264
lwrist -23.8821
lhand -10.8409 12.0491
lfingers 7.12502
lthumb 15.1738 41.4728
rfemur -32.8775 0.91409 21.3985
rtibia 76.7477
rfoot 6.08591 -17.368
rtoes -22.5017
lfemur -27.9253 -2.25468 -23.8347
ltibia 44.0362
lfoot 0.639401 11.5846
ltoes -20.4564
376
root 2.05607 15.9293 -14.025 -162.344 1.5624 176.701
lowerback 6.6351 -1.58625 -7.24948
upperback 4.23162 -2.04707 -2.28607
thorax 0.868032 -0.948495 1.81124
lowerneck -31.7459 0.113115 2.37578
upperneck 28.5969 -1.54496 2.60909
head 15.348 0.208659 0.421091
rclavicle -3.65764e-014 -3.18055e-015
rhumerus -49.4649 6.95056 -91.6969
rradius 65.0584
rwrist 16.8284
rhand -8.82543 -11.7399
rfingers 7.12502
rthumb 17.1145 -41.0061
lclavicle -3.65764e-014 -3.18055e-015
lhumerus -21.8532 -33.7733 91.1171
lradius 79.0959
lwrist -23.8114
lhand -11.08 12.1104
lfingers 7.12502
lthumb 14.9435 41.5514
rfemur -34.137 0.733152 21.2775
rtibia 77.575
rfoot 5.54565 -17.4662
rtoes -22.7501
lfemur -26.5696 -1.98604 -24.0383
ltibia 43.4921
lfoot 0.666314 11.2373
ltoes -20.609
377
root 2.04736 15.934 -14.2304 -162.583 1.80095 176.626
lowerback 6.48147 -1.70325 -7.37295
upperback 4.06982 -2.22262 -2.29267
thorax 0.804469 -1.0405 1.87977
lowerneck -31.8505 0.243699 2.47373
upperneck 28.7071 -1.37887 2.51881
head 15.4177 0.278017 0.40462
rclavicle 2.70347e-014 5.64548e-014
rhumerus -50.6585 6.66075 -91.1733
rradius 64.2262
rwrist 16.7558
rhand -8.50024 -11.7395
rfingers 7.12502
rthumb 17.4275 -40.9783
lclavicle 2.70347e-014 5.64548e-014
lhumerus -21.217 -33.796 90.646
lradius 79.8128
lwrist -23.7435
lhand -11.3525 12.1947
lfingers 7.12502
lthumb 14.6809 41.6549
rfemur -35.4194 0.564337 21.1776
rtibia 78.2258
rfoot 4.98146 -17.6782
rtoes -22.9653
lfemur -25.1968 -1.71289 -24.2362
ltibia 42.8629
lfoot 0.760279 10.876
ltoes -20.6918
